<?xml version="1.0" encoding="UTF-8"?>
<svg width="24" height="24" viewBox="0 0 24 24" fill="none" xmlns="http://www.w3.org/2000/svg">
  <path d="M12 2C6.48 2 2 6.02 2 11.2c0 1.77.5 3.43 1.36 4.84L2 22l6-1.91c1.36.44 2.81.68 4.31.68 5.52 0 10-4.02 10-9.2S17.52 2 12 2z" fill="#25D366"/>
  <path d="M17.27 14.4c-.2.57-1.01 1.05-1.65 1.2-.44.1-1.02.18-2.96-.61-2.49-1.03-4.09-3.56-4.22-3.72-.12-.16-1.01-1.34-1.01-2.56s.64-1.79.87-2.04c.2-.22.54-.32.87-.32.11 0 .2 0 .29.01.26.01.39.03.56.43.2.48.68 1.66.74 1.78.06.12.09.26.02.41-.07.15-.1.24-.2.37-.1.12-.21.27-.3.37-.1.1-.21.21-.09.41.12.2.54.89 1.17 1.44.81.72 1.49.95 1.7 1.05.21.1.33.08.45-.05.12-.13.52-.61.66-.82.14-.21.28-.17.47-.1.19.07 1.21.57 1.42.67.21.1.35.15.4.23.05.08.05.46-.15 1.03z" fill="#fff"/>
</svg>
